<?xml version="1.0" encoding="UTF-8"?>
<!-- Generator: Adobe Illustrator 25.2.3, SVG Export Plug-In . SVG Version: 6.00 Build 0)  -->
<svg xmlns="http://www.w3.org/2000/svg" xmlns:xlink="http://www.w3.org/1999/xlink" version="1.1" id="Capa_1" x="0px" y="0px" viewBox="0 0 512 512" style="enable-background:new 0 0 512 512;" xml:space="preserve" width="512" height="512">
<g>
	<g>
		<path style="fill-rule:evenodd;clip-rule:evenodd;fill:#EFAD1B;" d="M249.885,108.411c14.372-0.45,31.316-0.17,46.232,0.749    c14.874,0.918,30.002,0.766,45.407,1.549c8.94,0.454,18.277,0.765,27.635,1.103c5.854,0.212,19.355,129.484,25.132,129.76    c15.43,0.733-316.177,152.589-319.393,142.048c-2.43-7.962-3.588-17.204-4.27-26.888c-1.551-21.995-1.931-46.117-2.115-69.804    c-0.176-23.133-0.552-45.73-0.747-70.863c-0.151-20.317,0.961-35.807,0.617-54.615c-0.203-11.189,0-24.873,2.976-33.484    c1.609-4.641,4.004-7.606,8.008-10.146c7.076-4.493,17.959-6.481,28.512-7.379c11.296-0.964,22.756-1.114,34.371-1.607    c34.749-1.476,70.153-1.027,107.097-0.429C249.522,108.405,249.704,108.417,249.885,108.411z"/>
		<g>
			<path style="fill:#D39623;" d="M93.075,406.582c8.472,3.669,20.362,4.16,32.661,3.774c11.523-0.362,23.174-1.392,34.103-1.881     c68.967-3.087,141.071-2.37,210.468-4.703c11.221-0.378,23.509-0.338,34.633-1.332c10.574-0.945,21.65-2.983,28.787-7.376     c14.477-8.919,14.878-33.769,15.275-58.163c0.185-11.617,0.762-24.511,1.121-35.949c1.204-38.27,0.315-68.815-1.251-106.297     c-0.462-11.044-0.911-22.995-1.607-34.369c-1.137-18.607-2.541-39.037-18.227-43.292c-12.327-3.345-26.955-3.739-42.385-4.473     c-5.775-0.275-11.638-0.498-17.493-0.71c-0.934,3.343-1.937,6.838-3.316,10.289c-11.267,33.798-38.306,47.317-72.104,45.065     c-41.685-3.381-107.031-1.128-136.32,32.67c-20.282,21.407-30.418,54.078-41.685,81.117     c-6.759,18.025-14.645,34.925-22.531,51.824c-8.111,15.405-11.55,34.311-18.301,50.841     C78.117,394.158,83.558,402.459,93.075,406.582z"/>
			<path style="opacity:0.7;fill:#FFFFFF;" d="M447.264,160.286c-0.071-1.206-0.147-2.418-0.227-3.633v11.2h-26.676v-26.675h25.065     c-0.181-1.061-0.374-2.106-0.594-3.132h-24.47V115.15c-1.032-0.169-2.077-0.328-3.131-0.472v23.368h-24.305h-2.376v-25.344     c-1.07-0.049-2.145-0.099-3.225-0.15v25.494h-26.137v-4.805c-1.448,2.83-3.03,5.478-4.749,7.937h1.079v26.675h-26.137v-6.234     c-1.204,0.516-2.426,0.996-3.674,1.442v4.792h-26.133v-0.464c-1.07,0.008-2.145,0-3.227-0.026v0.49h-26.579v-1.774     c-1.07-0.019-2.145-0.036-3.228-0.045v1.819h-26.575v-0.901c-1.078,0.086-2.153,0.178-3.234,0.279v0.622h-5.899     c-6.472,0.759-12.912,1.787-19.208,3.131h25.106v26.677h-26.577v-26.366c-1.083,0.24-2.155,0.499-3.23,0.759v25.607h-26.577     v-16.297c-1.098,0.533-2.168,1.086-3.23,1.654v14.643h-19.684c-0.682,0.717-1.37,1.429-2.014,2.175     c-0.296,0.314-0.586,0.637-0.875,0.955h22.573v26.679h-26.579v-22.023c-1.108,1.376-2.182,2.787-3.232,4.229v17.794h-10.853     c-0.539,1.036-1.07,2.078-1.597,3.127h12.451v26.679h-24.122c-0.417,1.045-0.831,2.089-1.242,3.131h25.364v26.675h-26.575     v-23.608c-1.087,2.754-2.161,5.487-3.232,8.187v15.421h-2.373h-3.756c-0.411,1.05-0.835,2.09-1.255,3.133h5.011h2.373v26.674     H100.56c-0.478,1.043-0.953,2.089-1.431,3.131h20.37v26.678H92.823v-13.168c-1.127,2.196-2.163,4.461-3.129,6.777v6.391h-2.472     c-0.376,1.037-0.743,2.082-1.102,3.131h3.574v26.229H77.729c-0.365,1.05-0.737,2.093-1.121,3.131h13.086v25.656     c1.068,0.642,2.193,1.222,3.381,1.738c2.428,1.051,5.144,1.834,8.06,2.419h15.99h2.373v1.461c1.07-0.002,2.149-0.012,3.232-0.033     V409h26.575v0.063c3.565-0.224,7.085-0.434,10.532-0.589c33.874-1.517,68.507-2.114,103.204-2.607h-21.077v-26.679h26.575v26.603     c1.075-0.016,2.149-0.031,3.228-0.046v-26.556h26.579v26.179c1.079-0.016,2.153-0.03,3.227-0.047v-26.132h26.133v25.682     c1.225-0.024,2.453-0.046,3.674-0.07v-25.612h26.137v24.979c1.228-0.036,2.445-0.077,3.67-0.113v-24.866h26.137v24.158     c1.077-0.03,2.151-0.064,3.225-0.101v-24.057h2.376h24.305v21.579c1.058-0.204,2.103-0.424,3.131-0.663v-20.916h24.45     c0.321-1.014,0.615-2.062,0.885-3.131h-25.335v-26.229h26.676v19.697c1.593-9.882,1.778-21.301,1.964-32.623     c0.185-11.617,0.762-24.511,1.121-35.949c0.017-0.534,0.029-1.052,0.046-1.583v-9.155h0.235c0.025-1.043,0.05-2.1,0.073-3.133     h-0.309v-26.675h0.501c-0.004-1.047-0.017-2.088-0.025-3.131h-0.476v-26.496c-0.319-11.629-0.768-23.478-1.297-36.124     C448.41,183.611,447.961,171.66,447.264,160.286z M119.499,405.867h-2.373H92.823v-26.679h24.303h2.373V405.867z      M119.499,376.057h-2.373H92.823v-26.229h26.676V376.057z M149.306,405.867h-26.575v-26.679h26.575V405.867z M149.306,376.057     h-26.575v-26.229h26.575V376.057z M149.306,346.697h-26.575v-26.678h26.575V346.697z M149.306,316.888h-26.575v-26.674h26.575     V316.888z M179.117,405.867h-26.579v-26.679h26.579V405.867z M179.117,376.057h-26.579v-26.229h26.579V376.057z M179.117,346.697     h-26.579v-26.678h26.579V346.697z M179.117,316.888h-26.579v-26.674h26.579V316.888z M179.117,287.081h-26.579v-26.675h26.579     V287.081z M179.117,257.275h-26.579v-26.679h26.579V257.275z M208.924,405.867h-26.577v-26.679h26.577V405.867z M208.924,376.057     h-26.577v-26.229h26.577V376.057z M208.924,346.697h-26.577v-26.678h26.577V346.697z M208.924,316.888h-26.577v-26.674h26.577     V316.888z M208.924,287.081h-26.577v-26.675h26.577V287.081z M208.924,257.275h-26.577v-26.679h26.577V257.275z M208.924,227.469     h-26.577V200.79h26.577V227.469z M238.731,405.867h-26.577v-26.679h26.577V405.867z M238.731,376.057h-26.577v-26.229h26.577     V376.057z M238.731,346.697h-26.577v-26.678h26.577V346.697z M238.731,316.888h-26.577v-26.674h26.577V316.888z M238.731,287.081     h-26.577v-26.675h26.577V287.081z M238.731,257.275h-26.577v-26.679h26.577V257.275z M238.731,227.469h-26.577V200.79h26.577     V227.469z M268.54,376.057h-26.575v-26.229h26.575V376.057z M268.54,346.697h-26.575v-26.678h26.575V346.697z M268.54,316.888     h-26.575v-26.674h26.575V316.888z M268.54,287.081h-26.575v-26.675h26.575V287.081z M268.54,257.275h-26.575v-26.679h26.575     V257.275z M268.54,227.469h-26.575V200.79h26.575V227.469z M268.54,197.661h-26.575v-26.677h26.575V197.661z M298.347,376.057     h-26.579v-26.229h26.579V376.057z M298.347,346.697h-26.579v-26.678h26.579V346.697z M298.347,316.888h-26.579v-26.674h26.579     V316.888z M298.347,287.081h-26.579v-26.675h26.579V287.081z M298.347,257.275h-26.579v-26.679h26.579V257.275z M298.347,227.469     h-26.579V200.79h26.579V227.469z M298.347,197.661h-26.579v-26.677h26.579V197.661z M327.707,376.057h-26.133v-26.229h26.133     V376.057z M327.707,346.697h-26.133v-26.678h26.133V346.697z M327.707,316.888h-26.133v-26.674h26.133V316.888z M327.707,287.081     h-26.133v-26.675h26.133V287.081z M327.707,257.275h-26.133v-26.679h26.133V257.275z M327.707,227.469h-26.133V200.79h26.133     V227.469z M327.707,197.661h-26.133v-26.677h26.133V197.661z M357.518,376.057h-26.137v-26.229h26.137V376.057z M357.518,346.697     h-26.137v-26.678h26.137V346.697z M357.518,316.888h-26.137v-26.674h26.137V316.888z M357.518,287.081h-26.137v-26.675h26.137     V287.081z M357.518,257.275h-26.137v-26.679h26.137V257.275z M357.518,227.469h-26.137V200.79h26.137V227.469z M357.518,197.661     h-26.137v-26.677h26.137V197.661z M387.325,376.057h-26.137v-26.229h26.137V376.057z M387.325,346.697h-26.137v-26.678h26.137     V346.697z M387.325,316.888h-26.137v-26.674h26.137V316.888z M387.325,287.081h-26.137v-26.675h26.137V287.081z M387.325,257.275     h-26.137v-26.679h26.137V257.275z M387.325,227.469h-26.137V200.79h26.137V227.469z M387.325,197.661h-26.137v-26.677h26.137     V197.661z M387.325,167.852h-26.137v-26.675h26.137V167.852z M417.231,376.057h-24.305h-2.376v-26.229h2.376h24.305V376.057z      M417.231,346.697h-24.305h-2.376v-26.678h2.376h24.305V346.697z M417.231,316.888h-24.305h-2.376v-26.674h2.376h24.305V316.888z      M417.231,287.081h-24.305h-2.376v-26.675h2.376h24.305V287.081z M417.231,257.275h-24.305h-2.376v-26.679h2.376h24.305V257.275z      M417.231,227.469h-24.305h-2.376V200.79h2.376h24.305V227.469z M417.231,197.661h-24.305h-2.376v-26.677h2.376h24.305V197.661z      M417.231,167.852h-24.305h-2.376v-26.675h2.376h24.305V167.852z M447.038,346.697h-26.676v-26.678h26.676V346.697z      M447.038,316.888h-26.676v-26.674h26.676V316.888z M447.038,287.081h-26.676v-26.675h26.676V287.081z M447.038,257.275h-26.676     v-26.679h26.676V257.275z M447.038,227.469h-26.676V200.79h26.676V227.469z M447.038,197.661h-26.676v-26.677h26.676V197.661z"/>
		</g>
	</g>
	<g>
		<g>
			<path style="fill-rule:evenodd;clip-rule:evenodd;fill:#4D3D87;" d="M280.632,232.629c9.378,8.33,13.879,22.772,14.933,39.708     c0.776,12.457-1.635,23.554-4.663,33.883c-3.038,10.371-6.717,19.68-11.256,28.063c-4.245,7.832-10.226,17.291-18.154,21.719     c-6.826,3.813-15.092,2.622-19.885-1.742c-11.54-10.506-8.698-34.437-4.999-49.806c4.05-16.808,10.018-33.208,17.657-47.155     c3.966-7.249,8.568-13.721,12.551-20.288c-3.685-0.918-7.03-0.802-10.558,0.118c-8.266,2.152-15.967,8.245-22.454,13.589     c-32.604,26.867-51.957,65.085-65.582,108.383c-4.847,15.398-8.096,31.204-11.076,48.37c-0.359,2.062-0.371,4.717-2.046,6.358     c-1.689-0.02-1.614-2.225-1.819-3.137c-2.193-9.764-0.145-20.951,1.425-29.346c1.897-10.148,4.818-20.047,7.414-28.908     c5.387-18.393,12.425-36.113,20.838-52.501c12.117-23.589,28.668-45.739,50.599-61.938c9.714-7.175,25.702-16.372,39.754-9.788     c13.458-14.727,25.803-32.512,49.14-37.465c11.777-2.499,22.496,1.438,26.798,8.353c0.405,0.649,1.395,2.645,1.872,3.948     c3.056,8.351,1.433,24.75,4.312,34.409c1.07,3.598,2.495,7.097,4.804,7.558c5.345,1.063,13.481-6.646,16.498-9.154     c9.771-8.124,17.237-15.403,27.261-23.372c4.986-3.963,9.859-8.011,15.351-10.166c3.807-1.493,8.404-2.186,12.142-0.755     c7.28,2.785,9.076,11.886,13.93,19.18c1.523,2.29,3.479,4.063,5.311,6.983c0.793,1.267,4.065,6.68,0.518,8.367     c-2.625,1.251-9.75-4.42-11.21-6.074c-2.04-2.301-4.187-6.74-6.088-10.729c-1.53-3.197-3.691-9.154-6.826-9.598     c-3.467-0.491-7.045,2.167-10.041,4.146c-14.41,9.521-24.357,21.001-37.565,31.87c-5.126,4.216-13.615,11.603-22.756,8.732     c-8.52-2.676-11.928-13.482-13.252-25.725c-1.02-9.466,1.238-20.408-3.519-26.058c-5.227-6.211-17.627-3.842-25.213-0.329     C299.82,209.256,289.886,221.938,280.632,232.629z M249.329,291.199c-2.728,8.469-5.737,18.54-6.566,29.396     c-0.743,9.738-0.048,27.387,9.305,27.595c3.773,0.085,7.79-4.133,10.121-7.133c7.716-9.935,13.053-22.809,17.044-35.195     c2.862-8.887,5.036-18.485,5.252-28.772c0.29-14.082-3.288-27.843-9.775-35.153c-0.275,0.018-0.338-0.198-0.556-0.235     C263.97,255.803,255.553,271.886,249.329,291.199z"/>
			<path style="fill-rule:evenodd;clip-rule:evenodd;fill:#FFFFFF;" d="M245.539,217.949c-1.074-3.269,1.981-4.665,3.246-6.49     c-29.137,6.971-50.022,24.12-62.73,48.4c-0.619,1.177-1.834,3.788-3.786,3.515c-4.113-0.574,0.56-8.234,1.622-10.005     c5.574-9.319,13.143-17.648,21.088-24.335c11.414-9.6,24-16.637,40.56-20.28c-2.107-1.228-5.112-1.557-6.491-3.514     c0-0.27,0-0.54,0-0.811c0.222-0.051,0.273-0.271,0.543-0.27c2.235,0.119,4.885,0.923,8.111,1.892     c2.245,0.674,6.065,1.662,6.489,2.974c0.789,2.428-1.836,4.424-3.244,5.95C249.379,216.675,248.076,218.743,245.539,217.949z"/>
		</g>
		<path style="fill-rule:evenodd;clip-rule:evenodd;fill:#B1BC00;" d="M195.63,387.816c10.744-6.645,22.362-5.369,31.03-2.631    c7.832,2.474,15.686,6.948,22.544,13.009c4.663,4.123,9.712,8.935,12.41,16.874c1.601,4.714,1.469,10.163-2.48,12.517    c-4.436,2.645-8.824-0.196-11.197-2.208c-5.011-4.247-8.927-9.892-14.828-11.851c-1.467-0.488-3.899-0.83-5.179-0.853    c-8.436-0.147-18.32,6.834-26.892,6.361c-3.486-0.192-7.628-1.7-10.301-4.121c-6.747-6.113-5.559-15.312-3.156-19.43    C188.951,393.143,192.42,389.805,195.63,387.816z"/>
		<g>
			<path style="fill-rule:evenodd;clip-rule:evenodd;fill:#B1BC00;" d="M182.783,89.183c7.525-1.059,13.235,2.661,16.228,7.569     c1.842,3.024,2.858,10.753,5.947,11.086c4.333,0.469,5.362-7.66,7.03-10.274c1.687-2.647,6.251-6.175,11.086-5.137     c9.901,2.126,7.324,16.622,3.244,23.523c-1.58,2.672-6.149,6.549-6.22,9.464c-0.042,1.753,1.551,4.073,2.705,5.948     c4.111,6.677,8.982,13.682,8.115,25.146c-0.818,10.739-8.503,23.711-18.931,25.146c-10.048,1.381-17.285-5.171-17.846-13.25     c-0.405-5.817,1.926-11.724,3.786-16.763c1.761-4.776,5.19-10.632,3.784-16.225c-0.775-3.088-3.926-5.749-7.03-7.57     c-8.749-5.139-24.504-6.407-27.308-17.846C164.441,98.041,174.406,90.361,182.783,89.183z"/>
			<path style="fill-rule:evenodd;clip-rule:evenodd;fill:#4D3D87;" d="M117.518,298.591c1.882,0.378,4.787,2.346,5.387,5.229     c1.481,7.11-5.569,16.459-9.741,21.044c-8.982,9.855-21.226,17.29-32.72,20.966c-5.712,1.827-13.269,4.305-19.604,3.346     c-9.403-1.427-13.462-9.81-6.747-17.259c3.536-3.923,9.298-5.46,14.456-6.843c9.225-2.476,20.345-4.853,28.386-11.753     c4.27-3.663,7.594-9.256,12.064-12.496C111.179,299.246,113.932,297.876,117.518,298.591z"/>
			<path style="fill-rule:evenodd;clip-rule:evenodd;fill:#4D3D87;" d="M144.614,101.347c3.515-0.255,6.965,1.212,6.461,7.33     c-0.306,3.778-4.071,6.892-7.775,9.507c-3.402,2.403-7.723,5.7-11.852,4.623c-1.708-0.443-3.874-2.699-4.077-5.284     c-0.264-3.456,3.001-7.5,5.357-9.544c2.741-2.387,5.767-4.906,8.065-5.891C141.834,101.64,143.334,101.44,144.614,101.347z"/>
			<path style="fill-rule:evenodd;clip-rule:evenodd;fill:#FF5000;" d="M76.339,288.789c5.685-0.226,11.277,1.301,10.528,7.521     c-0.46,3.84-6.52,6.973-12.488,9.597c-5.485,2.411-12.444,5.725-19.14,4.589c-2.764-0.469-6.298-2.784-6.642-5.416     c-0.466-3.52,4.783-7.603,8.572-9.66c4.413-2.402,9.286-4.936,12.99-5.914C71.84,289.06,74.268,288.871,76.339,288.789z"/>
			<path style="fill-rule:evenodd;clip-rule:evenodd;fill:#8F7ECE;" d="M491.79,225.283c6.314-0.879,10.213,3.105,10.402,9.296     c0.208,6.752-2.871,12.975-5.412,17.509c-2.774,4.954-5.922,9.039-9.361,13.186c-6.797,8.208-14.815,15.353-23.505,21.401     c-8.291,5.767-17.476,11.209-30.166,14.483c-5.487,1.415-12.96,2.837-19.556,1.729c-6.004-1.007-11.621-4.864-11.445-11.024     c0.153-5.261,5.003-7.867,8.944-9.295c4.375-1.582,9.431-2.809,13.527-4.539c9.175-3.878,15.351-9.168,21.428-14.699     c5.868-5.342,12.266-11.534,18.723-17.726c2.992-2.865,6.161-5.908,9.153-9.08c3.055-3.237,6.298-6.402,9.571-8.429     C486.214,226.779,487.807,225.838,491.79,225.283z"/>
		</g>
		<g>
			<g>
				<path style="fill-rule:evenodd;clip-rule:evenodd;fill:#FFFFFF;" d="M259.33,173.197c-4.029,0.602-2.971-4.154-2.634-7.138      c0.436-4.009-0.907-8.741-2.774-10.057c-1.935-1.36-4.147-0.399-4.493-3.084c-0.371-2.855,2.019-3.135,3.771-3.495      c4.592-0.948,5.96-1.924,6.581-7.027c0.455-3.73-0.283-7.749,3.202-7.645c4.73,0.136,1.796,8.978,4.092,13.504      c0.537,1.046,1.19,1.949,2.092,2.506c1.024,0.63,4.846,0.759,4.957,3.586c0.034,0.786-0.705,2.154-1.555,2.611      c-1.557,0.833-2.348,0.106-3.41,0.356c-3.651,0.865-5.429,5.208-6.428,9.462C262.026,169.764,262.161,172.773,259.33,173.197z"/>
				<path style="fill-rule:evenodd;clip-rule:evenodd;fill:#FFFFFF;" d="M273.719,186.9c-0.802-0.44-1.054-0.781-2.065-0.58      c-1.993,0.387-1.738,2.307-2.302,3.764c-0.543,1.4-1.685,3.291-3.001,3.875c-1.727,0.766-4.13,0.218-3.515,2.875      c0.302,1.307,1.851,1.206,2.69,2.285c0.42,0.542,0.766,1.711,0.93,2.554c0.548,2.87-1.205,8.723,2.34,8.266      c3.181-0.411,1.725-7.725,4.684-9.344c1.557-0.853,3.922-0.106,3.716-2.724c-0.147-1.782-2.111-1.955-2.701-3.542      C273.514,191.668,274.957,189.791,273.719,186.9z"/>
			</g>
			<path style="fill-rule:evenodd;clip-rule:evenodd;fill:#FFFFFF;" d="M131.135,373.868c2.136,0.905,5.316,1.245,5.282,4.02     c-0.05,3.51-4.48,2.928-6.436,4.372c-3.313,2.435-3.034,8.201-4.6,12.877c-0.403,1.217-0.795,2.888-2.831,2.881     c-2.604-0.01-2.774-2.571-3.047-5.563c-0.481-5.363-1.952-10.073-5.228-12.185c-1.981-1.277-4.51-0.756-4.476-3.715     c0.029-2.936,2.709-2.347,5.028-3.338c3.706-1.577,5.003-6.274,6.151-10.911c0.256-1.033,0.336-2.444,0.661-2.968     c1.188-1.89,4.678-1.944,5.697,0.5c0.575,1.374,0.004,3.191,0.078,4.901C127.583,368.648,128.72,371.519,131.135,373.868z"/>
			<path style="fill-rule:evenodd;clip-rule:evenodd;fill:#FFFFFF;" d="M327.172,145.575c-0.777,0.396-1.024,0.711-1.989,0.491     c-1.893-0.431-1.587-2.258-2.078-3.671c-0.483-1.354-1.511-3.196-2.753-3.795c-1.626-0.785-3.941-0.336-3.265-2.857     c0.323-1.241,1.798-1.096,2.634-2.099c0.418-0.507,0.787-1.614,0.97-2.413c0.611-2.729-0.877-8.376,2.495-7.83     c3.026,0.493,1.402,7.439,4.185,9.075c1.467,0.867,3.748,0.226,3.469,2.722c-0.193,1.697-2.077,1.806-2.692,3.301     C327.126,141.009,328.448,142.848,327.172,145.575z"/>
		</g>
		<g>
			<g>
				<path style="fill-rule:evenodd;clip-rule:evenodd;fill:#4D3D87;" d="M378.711,220.154c-2.103-0.926-2.34-3.567-3.089-5.525      c-2.176-5.689-4.629-12.321-6.618-18.486c1.215-1.165,3.681-2.459,5.286-2.131c1.88,0.387,1.964,3.235,2.365,5.765      c0.804,5.074,1.526,9.198,2.325,13.91C379.397,216.113,380.346,218.902,378.711,220.154z"/>
				<path style="fill-rule:evenodd;clip-rule:evenodd;fill:#D4CDEE;" d="M356.064,99.264c2.331-2.955,2.837,3.566,3.085,5.286      c3.5,24.229,8.6,48.078,13.315,71.241c0.793,3.939,1.788,7.992,2.566,12.715c0.418,2.522,2.019,11.389-1.735,12.211      c-3.288,0.722-7.443-3.954-9.315-6.516c-2.424-3.321-3.882-7.328-4.978-10.809c-5.062-16.068-7.189-34.546-8.843-53.722      c-0.348-4.087-0.911-9.368-1.121-14.622C348.692,106.64,348.566,98.549,356.064,99.264z"/>
				<path style="fill:#FFFFFF;" d="M363.507,192.283c1.299-0.277,1.488-2.998,1.467-4.788c-0.088-5.835-1.293-12.335-2.073-16.785      c-3.502-19.922-6.444-39.98-12.666-56.619c-0.273-0.736-0.716-1.957-1.309-2.86c0.017,1.244,0.059,2.526,0.113,3.816      c0.21,5.254,0.772,10.535,1.121,14.622c1.654,19.176,3.782,37.654,8.843,53.722c0.885,2.811,2.019,5.961,3.693,8.819      C362.96,192.308,363.232,192.344,363.507,192.283z"/>
				<path style="fill-rule:evenodd;clip-rule:evenodd;fill:#4D3D87;" d="M436.623,196.771c0.846-2.142-0.844-4.189-1.691-6.104      c-2.445-5.577-5.357-12.018-8.278-17.804c-1.677,0.028-4.344,0.836-5.251,2.197c-1.07,1.597,0.865,3.685,2.361,5.764      c2.997,4.172,5.383,7.615,8.117,11.532C433.293,194.375,434.577,197.027,436.623,196.771z"/>
				<path style="fill-rule:evenodd;clip-rule:evenodd;fill:#D4CDEE;" d="M367.786,94.841c-3.739-0.462,0.485,4.536,1.513,5.935      c14.54,19.693,27.671,40.248,40.593,60.035c2.199,3.366,4.342,6.948,7.11,10.854c1.471,2.087,6.566,9.523,9.817,7.469      c2.846-1.796,2.516-8.046,2.048-11.179c-0.615-4.067-2.39-7.942-4.054-11.191c-7.693-14.991-19.161-29.63-31.465-44.434      c-2.621-3.157-5.928-7.307-9.475-11.196C378.214,94.912,372.617,89.063,367.786,94.841z"/>
				<path style="fill:#FFFFFF;" d="M413.128,150.479c2.567,3.715,6.277,9.187,10.314,13.4c1.242,1.291,3.293,3.093,4.405,2.378      c0.246-0.154,0.413-0.372,0.535-0.63c-0.818-3.208-2.224-6.242-3.57-8.865c-7.693-14.991-19.161-29.63-31.465-44.434      c-2.621-3.157-5.928-7.307-9.475-11.196c-0.869-0.957-1.736-1.897-2.6-2.794c0.212,1.062,0.753,2.243,1.074,2.963      C389.615,117.506,401.618,133.843,413.128,150.479z"/>
				<g>
					<path style="fill-rule:evenodd;clip-rule:evenodd;fill:#FF5000;" d="M355.5,63.146c-3.528,1.484-7.097,2.921-10.176,4.832       c-1.874-2.292-2.921-5.152-4.289-7.796c-1.341-2.587-3.013-5.101-3.815-8.049c4.258-1.567,8.079-3.548,12.079-5.363       C351.642,51.934,353.497,57.614,355.5,63.146z"/>
					<path style="fill-rule:evenodd;clip-rule:evenodd;fill:#4D3D87;" d="M354.742,61.729c12.757-1.788,23.868,8.393,22.92,22.868       c-0.772,11.673-10.568,20.328-21.264,20.477c-7.448,0.102-14.179-4.204-17.524-9.831c-5.282-8.885-2.913-21.281,3.559-27.667       C345.315,64.735,349.695,62.432,354.742,61.729z"/>
					<path style="fill-rule:evenodd;clip-rule:evenodd;fill:#FFFFFF;" d="M355.483,69.341c8.253-1.155,15.438,5.432,14.824,14.798       c-0.493,7.552-6.833,13.155-13.754,13.248c-4.816,0.069-9.177-2.72-11.338-6.36c-3.418-5.747-1.889-13.769,2.302-17.9       C349.385,71.286,352.215,69.796,355.483,69.341z"/>
				</g>
			</g>
			<g>
				<path style="fill-rule:evenodd;clip-rule:evenodd;fill:#8F7ECE;" d="M146.035,133.587c20.353-1.591,36.606,12.23,37.584,31.364      c0.396,7.711-1.058,15.004-3.515,20.821c-3.139,7.448-7.895,12.924-9.193,21.361c-1.372,8.942,0.995,16.551,2.436,24.605      c1.383,7.74,2.256,16.748,0,24.605c-3.767,13.128-13.554,23.775-25.146,29.472c-6.659,3.276-14.725,5.076-22.443,4.868      c-16.062-0.434-26.695-10.473-35.42-19.198c-5.34-5.343-9.116-11.403-17.302-14.06c-8.78-2.85-18.385-1.191-26.769,0      c-10.289,1.461-17.577,0.288-24.607-3.515c-6.726-3.636-11.67-8.142-15.682-14.331c-3.79-5.846-6.988-13.724-5.679-23.524      c2.031-15.207,14.268-26.895,24.876-34.88c5.424-4.085,11.789-8.507,15.68-14.061c3.995-5.701,6.052-12.925,10.545-19.197      c3.272-4.563,6.44-7.487,11.359-9.733c6.636-3.031,15.097-3.516,22.171-2.434c6.629,1.015,12.656,4.517,19.739,5.679      c3.498,0.574,7.863-0.652,11.359-1.352C126.347,138.006,134.333,134.502,146.035,133.587z"/>
				<g style="opacity:0.61;">
					<path style="fill:#FFFFFF;" d="M62.913,184.97c-0.285,0-0.581,0.026-0.854,0.053c-0.208,0.019-0.392,0.041-0.644,0.035       c-5.261-0.355-9.447-0.354-12.402,0.003c-2.463,0.296-5.229,0.357-7.903,0.415c-4.23,0.093-8.606,0.189-11.949,1.222       c-0.218,0.068-0.369,0.259-0.395,0.485c-0.789,8.348-0.903,17.514-1.011,26.378c-0.069,5.78-0.141,11.721-0.401,17.433       c-0.292-1.089-0.598-2.19-0.902-3.272c-0.38-1.349-0.76-2.705-1.11-4.044c-0.159-0.623-0.306-1.278-0.449-1.94       c-0.676-3.064-1.442-6.535-4.4-7.825c-0.246-0.103-0.523-0.029-0.678,0.182c-1.645,2.215-3.475,5.112-3.02,7.874       c0.044,0.255,0.254,0.449,0.51,0.47c0.105,0.008,0.204,0.013,0.3,0.013c1.855,0,2.306-1.507,2.634-2.605       c0.126-0.415,0.25-0.818,0.422-1.134c1.148,3.594,2.082,7.601,2.993,11.486c0.606,2.579,1.232,5.247,1.897,7.69       c0.076,0.274,0.143,0.562,0.22,0.86c0.457,1.876,1.032,4.209,3.022,5.018c0.071,0.027,0.143,0.041,0.21,0.041       c0.164,0,0.321-0.069,0.43-0.196c1.442-1.677,1.303-3.926,1.18-5.911c-0.034-0.542-0.067-1.073-0.067-1.577       c0-12.871,0.413-28.266,1.27-47.046c3.307-0.133,6.854-0.26,10.44-0.389c4.952-0.177,9.993-0.359,14.616-0.562       c0.705-0.029,1.5,0.018,2.306,0.067c0.665,0.041,1.337,0.081,1.968,0.081c1.333,0,2.955-0.16,3.641-1.412       c0.05-0.088,0.071-0.19,0.071-0.291C64.832,185.972,64.555,184.97,62.913,184.97z"/>
					<path style="fill:#FFFFFF;" d="M36.221,209.369c0.057,0.263,0.287,0.449,0.554,0.449c0.017,0,0.034-0.001,0.051-0.003       c2.115-0.185,2.871-1.735,3.536-3.105c0.346-0.715,0.674-1.396,1.171-1.86c0.183,0.253,0.346,0.533,0.518,0.824       c0.667,1.126,1.496,2.527,3.609,2.527l0.206-0.004c0.248-0.011,0.46-0.183,0.523-0.424c0.447-1.751-0.72-2.891-1.748-3.898       c-0.567-0.553-1.102-1.077-1.396-1.674c0.281-0.384,0.602-0.741,0.936-1.114c0.959-1.073,1.95-2.182,2.216-4.057       c0.038-0.251-0.097-0.494-0.33-0.595c-0.42-0.184-0.804-0.273-1.175-0.273c-1.354,0-2.04,1.152-2.642,2.168       c-0.338,0.564-0.661,1.107-1.056,1.423c-0.097-0.176-0.185-0.356-0.277-0.536c-0.636-1.261-1.429-2.832-3.674-2.832       l-0.162,0.003c-0.302,0.009-0.544,0.255-0.548,0.556c-0.025,1.884,0.886,2.883,1.685,3.766c0.483,0.529,0.936,1.03,1.19,1.706       c-0.313,0.606-0.774,1.214-1.261,1.853C37.052,205.717,35.805,207.358,36.221,209.369z"/>
					<path style="fill:#FFFFFF;" d="M44.715,213.963c-0.94,0-1.964,0.059-2.95,0.113c-1.011,0.057-2.061,0.115-3.047,0.115       c-0.43,0-0.911-0.035-1.396-0.07c-0.539-0.039-1.089-0.078-1.605-0.078c-0.688,0-2.506,0-3.034,1.496       c-0.056,0.158-0.04,0.334,0.051,0.48c0.753,1.239,2.541,1.398,4.012,1.398c0.707,0,1.452-0.04,2.191-0.08       c1.4-0.077,2.673-0.077,4.046-0.005c0.709,0.036,1.421,0.072,2.09,0.072c1.649,0,3.613-0.206,4.212-1.806       c0.084-0.233,0.008-0.495-0.191-0.646C48.193,214.269,46.843,213.963,44.715,213.963z"/>
					<path style="fill:#FFFFFF;" d="M43.194,228.025c0.222-0.71,0.594-1.421,0.982-2.17c0.774-1.496,1.58-3.044,1.246-4.733       c-0.05-0.245-0.252-0.43-0.502-0.452c-2.241-0.194-2.736,1.471-3.114,2.668c-0.147,0.471-0.292,0.923-0.502,1.264       c-0.262-0.381-0.447-0.879-0.64-1.398c-0.451-1.206-1.007-2.707-2.871-2.86c-0.271-0.016-0.514,0.148-0.587,0.407       c-0.615,2.134,0.445,3.853,1.379,5.368c0.476,0.769,0.923,1.497,1.169,2.251c-0.155,0.588-0.447,1.198-0.755,1.844       c-0.644,1.349-1.376,2.88-0.814,4.475c0.069,0.192,0.233,0.332,0.437,0.367c0.218,0.04,0.42,0.058,0.602,0.058       c1.605,0,1.949-1.315,2.208-2.274c0.097-0.37,0.183-0.673,0.292-0.902c0.48,1.316,1.15,2.991,2.684,2.991       c0.325,0,0.661-0.077,1.012-0.235c0.208-0.091,0.342-0.298,0.338-0.525c-0.038-1.884-0.785-3.036-1.505-4.153       C43.834,229.375,43.442,228.764,43.194,228.025z"/>
				</g>
				<g>
					<g>
						<path style="fill-rule:evenodd;clip-rule:evenodd;fill:#FFFFFF;" d="M68.082,150.922c-3.836-1.872,4.902-8.645,5.743-4.529        C74.264,148.54,70.126,150.555,68.082,150.922z"/>
						<path style="fill-rule:evenodd;clip-rule:evenodd;fill:#FFFFFF;" d="M60.664,151.507c0.869-0.243,2.787-0.27,3.139,1.512        c0.468,2.328-3.093,5.494-4.264,7.019c-1.429,1.853-3.28,5.983-5.889,5.618c-3.723-0.521,0.009-6.209,1.368-8.113        c0.73-1.01,1.54-1.932,2.193-2.758C58.337,153.375,58.989,151.975,60.664,151.507z"/>
					</g>
					<g>
						<path style="fill-rule:evenodd;clip-rule:evenodd;fill:#FFFFFF;" d="M127.245,282.393c1.391-2.762,5.821-5.51,10.331-7.945        c1.935-1.045,5.089-2.678,6.214-1.057c1.356,1.947-1.93,4.375-3.106,5.236c-3.735,2.738-8.797,5.286-11.882,5.854        C128.097,284.295,127.354,283.23,127.245,282.393z"/>
						<path style="fill-rule:evenodd;clip-rule:evenodd;fill:#FFFFFF;" d="M140.497,268.14c-3.57-3.474,5.236-9.893,7.284-6.304        c0.886,1.561-2.214,6.256-4.784,7.048C142.068,269.162,141.12,268.743,140.497,268.14z"/>
						<path style="fill-rule:evenodd;clip-rule:evenodd;fill:#FFFFFF;" d="M159.198,258.07c-1.391-1.094-0.705-3.564,0.837-5.612        c1.24-1.644,4.363-4.223,5.708-2.275c0.598,0.862,0.311,2.915-0.927,4.645C163.366,256.861,160.988,259.479,159.198,258.07z"/>
					</g>
				</g>
				<path style="opacity:0.61;fill-rule:evenodd;clip-rule:evenodd;fill:#FFFFFF;" d="M160.795,160.302      c-1.83-1.856-7.987-2.184-13.85-1.736c-10.669,0.813-21.252,1.627-30.793,1.488c-5.429-0.079-11.579-0.599-15.961-0.048      c-1.211,0.151-2.319,0.272-3.271,0.519c-0.237-0.163-0.472-0.318-0.783-0.396c-2.34,1.533-5.093,3.534-7.403,5.639      c-2.061,1.882-4.113,3.971-6.039,5.867c-3.691,3.636-8.782,8.484-10.4,13.574c-1.991,6.262-1.211,17.144-1.381,25.473      c-0.189,9.112-0.661,18.218,0.292,27.042c0.594,5.51,3.104,9.106,7.895,10.307c5.779,1.45,13.938,1.065,21.948,1.218      c7.915,0.15,16.108,0.835,22.741,0.651c1.679-0.046,6.31-0.252,8.102-0.52c4.075-0.61,5.305-2.096,7.452-4.016      c5.517-4.946,10.44-9.99,15.224-15.077c0.837-0.893,1.945-1.787,2.844-2.807c3.213-2.275,4.174-7.91,4.518-12.839      c0.418-5.962,0.279-12.487,0.237-18.673c-0.05-7.704,0.134-11.866,0.243-18.403      C162.487,172.951,163.683,163.226,160.795,160.302z M115.191,163.871c4.776,0.071,9.775-0.031,14.601-0.179      c9.07-0.28,17.845-1.829,25.795-0.969c-0.52,0.667-0.982,1.345-1.423,1.841c-5.187,5.886-10.484,12.166-15.69,17.526      c-4.931-1.661-11.726-0.237-17.862-0.261c-7.882-0.031-15.701-0.214-23.497-0.367c0.025-3.301,0.017-6.622-0.086-9.997      c-0.071-2.281-0.548-4.831,0.321-7.045C102.046,162.805,108.667,163.774,115.191,163.871z M96.915,194.192      c0.05-2.96,0.109-5.913,0.158-8.876c9.342,0.266,18.937,0.688,27.446,0.45c4.247-0.12,8.067-1.249,12.171-0.105      c0.506,12.398,0.46,25.868-0.109,38.849c-8.723,0.108-17.799,0.245-26.275,0.378c-4.751,0.073-9.412,0.122-13.04-1.764      C95.06,213.956,96.752,203.972,96.915,194.192z M93.847,165.324c-0.021,1.658,0.143,3.528,0.164,4.881      c0.046,2.862-0.197,6.202-0.29,8.124c-0.052,1.049-0.099,2.066-0.145,3.07c-5.334-0.094-10.662-0.168-15.995-0.14      C82.413,175.466,88.267,170.17,93.847,165.324z M133.362,244.465c-2.357,1.691-10.297,1.291-14.568,1.261      c-5.421-0.037-9.951-0.239-14.62-0.362c-4.338-0.112-9.248,0.019-14.622-0.36c-4.264-0.302-10.62-0.76-12.259-2.869      c-1.964-2.535-1.465-9.561-1.515-14.022c-0.055-5.163,0.063-10.248,0.101-14.339c0.086-9.543-1.016-20.033,0.747-28.427      c5.187-0.289,10.891-0.26,16.767-0.127c-0.413,8.472-0.785,15.814-1.121,25.075c-0.195,5.412-0.363,12.686,1.83,15.362      c2.464,3.016,8.096,2.935,13.346,3.106c10.459,0.339,19.646-0.15,28.94-0.29c-0.061,1.065-0.111,2.135-0.174,3.19      C135.941,236.235,135.76,242.747,133.362,244.465z M139.494,241.571c0.543-4.161,0.911-8.57,1.15-13.128      c2.609,0,5.232,0.027,7.915,0.135c1.287,0.053,2.525,0.122,3.693,0.121C148.163,233.395,143.615,238.031,139.494,241.571z       M157.799,194.751c-0.05,5.467,0.239,11.077-0.042,16.231c-0.266,4.896-0.405,9.938-3.102,13.351      c-4.334,0.027-9.003,0.073-13.829,0.128c0.476-13.041,0.034-27.064-0.388-39.997c5.374-5.428,11.021-11.718,16.244-17.271      c0.472-0.506,1.083-1.049,1.673-1.636C158.953,174.809,157.887,185.105,157.799,194.751z"/>
			</g>
			<g>
				<g>
					<g>
						<path style="fill:#FFFFFF;" d="M402.86,330.824l-0.151-0.471c-3.691-11.911-21.314-19.369-35.273-18.88        c-0.051-0.19-0.101-0.379-0.16-0.563c-1.622-5.069-3.179-11.206-2.428-18.312c0.101-0.914,0.231-1.836,0.401-2.738        c1.664-9.053,5.903-14.693,9.806-18.989l0.166-0.172c0.581-0.585,1.66-1.677,1.824-3.258c0.12-1.128-0.252-2.22-1.062-3.083        c-0.737-0.762-1.715-1.163-2.764-1.127c-2.185,0.082-4.086,2.124-5.792,4.289l-0.147,0.186        c-4.78,5.903-7.84,12.08-9.353,18.881c-0.376,1.679-0.655,3.373-0.831,5.038c-0.848,8.015,0.655,14.406,2.525,20.681        c-9.584,1.837-18.481,5.696-26.472,11.483c-10.423,7.555-17.256,15.724-21.497,25.707c-2.287,5.391-3.834,11.772-4.598,18.965        c-0.059,0.576-0.113,1.146-0.159,1.704c-1.16,13.327,0.3,24.571,4.589,35.388c1.542,3.899,3.723,7.672,6.281,10.89        l0.243,0.323c0.722,0.962,2.411,3.213,5.081,2.864c0.395-0.054,0.795-0.165,1.192-0.332l0.594-0.252        c0.254-0.107,0.46-0.305,0.577-0.556l0.283-0.598c0.21-0.439,0.338-0.901,0.38-1.358c0.231-2.119-1.133-3.517-1.88-4.282        c-0.004-0.003-0.08-0.081-0.084-0.081c-0.05-0.053-0.101-0.101-0.143-0.153c-4.01-5.105-6.982-12.117-8.591-20.281        c-0.873-4.413-1.293-9.305-1.217-14.146c0.088-5.789,0.682-11.162,1.761-15.974c2.728-12.095,8.581-21.16,18.989-29.392        c8.398-6.644,17.638-10.802,27.467-12.364c0.013,0.031,0.025,0.064,0.034,0.095c0.191,0.521,0.418,1.129,0.72,1.75        c1.587,3.275,3.656,6.669,6.514,10.685c2.835,3.983,7.42,9.55,14.444,11.895c2.881,0.964,6.056,1.289,8.931,0.909        c2.22-0.291,4.235-0.994,5.827-2.03c3.297-2.141,4.915-5.639,4.566-9.845C403.376,332.379,403.089,331.514,402.86,330.824z         M395.751,334.022c0,0.199-0.008,0.389-0.029,0.577c-0.084,0.865-0.439,1.484-1.104,1.95        c-1.471,1.034-4.573,1.259-7.185,0.589c-5.202-1.337-8.482-5.192-11.399-9.028c-1.935-2.546-3.679-5.432-5.33-8.81        c9.63,0.533,20.475,5.637,23.948,11.475C395.224,331.741,395.738,333.258,395.751,334.022z"/>
						<path style="fill-rule:evenodd;clip-rule:evenodd;fill:#D4CDED;" d="M312.243,357.225        c32.495-3.862,37.76,24.039,39.032,54.008c1.028,24.065-3.519,44.913-16.075,51.164c-13.011,6.477-29.66,0.671-37.196-5.685        c-7.722-6.517-14.163-20.47-15.153-34.586c-1.706-24.15,3.068-52.921,15.613-61.112        C302.089,358.645,306.691,357.884,312.243,357.225z"/>
						<path style="fill:#8F7ECE;" d="M351.275,411.233c-0.928-21.809-3.975-42.507-18.085-50.681        c8.994,10.005,11.267,27.485,12.045,45.745c1.024,24.068-3.519,44.917-16.074,51.166c-11.237,5.588-25.167,2.026-33.618-3.142        c0.802,0.874,1.622,1.684,2.461,2.392c7.536,6.355,24.185,12.162,37.196,5.685        C347.756,456.146,352.304,435.298,351.275,411.233z"/>
						<g>
							<path style="fill:#8F7ECE;" d="M310.204,357.48v22.117h5.263V356.94C313.554,357.06,311.776,357.198,310.204,357.48z"/>
							<path style="fill-rule:evenodd;clip-rule:evenodd;fill:#FFFFFF;" d="M319.059,391.848c0,3.545-2.787,6.417-6.222,6.417l0,0         c-3.435,0-6.218-2.872-6.218-6.417v-11.511c0-3.544,2.783-6.416,6.218-6.416l0,0c3.435,0,6.222,2.872,6.222,6.416V391.848z"/>
						</g>
					</g>
					<g>
						<path style="fill-rule:evenodd;clip-rule:evenodd;fill:#FFFFFF;" d="M340.103,428.59c4.56,3.58,7.662-11.121,2.128-9.711        C339.343,419.616,339.339,425.875,340.103,428.59z"/>
						<path style="fill-rule:evenodd;clip-rule:evenodd;fill:#FFFFFF;" d="M343.781,438.009c-0.218-1.208-1.318-3.564-3.708-2.941        c-3.123,0.808-4.885,7.041-6.052,9.379c-1.421,2.842-5.37,7.557-3.381,10.532c2.848,4.24,7.59-3.695,9.108-6.491        c0.81-1.49,1.454-3.023,2.073-4.314C342.881,441.962,344.203,440.333,343.781,438.009z"/>
					</g>
				</g>
				<g>
					<g>
						<path style="fill-rule:evenodd;clip-rule:evenodd;fill:#B1BC00;" d="M477.029,357.826c0.877,0.546,0.865,1.889,0.995,2.768        c1.066,7.394,0.953,17.114,0.05,25.174c-1.016,9.06-3.771,17.04-7.932,22.656c-4.185,5.658-10.587,9.667-14.95,15.514        c-4.51,6.037-6.329,13.659-7.101,23.522c-6.9,3.14-15.571,5.158-25.276,4.493c-9.072-0.625-17.529-3.973-24.387-6.278        c-0.932-6.766-2.732-13.364-6.138-18.117c-4.707-6.586-12.438-10.704-17.357-17.538c-8.138-11.308-6.178-29.025-6.967-48.257        C403.465,359.107,440.218,359.099,477.029,357.826z"/>
						<g>
							<path style="fill-rule:evenodd;clip-rule:evenodd;fill:#B1BC00;" d="M474.616,416.352c0.804,5.218-0.267,12.225-5.788,12.348         c-3.022,0.064-4.734-2.205-6.014-5.007c-1.612-3.5-2.682-8.463-0.571-11.859c4.094-6.591,15.579-2.367,24.198-4.088         c7.259-1.452,13.699-6.979,14.515-14.679c0.363-3.435-0.411-6.644-2.518-9.788c-1.123-1.669-3.347-4.578-6.879-4.391         c-6.72,0.357-6.402,10.101-12.102,11.142c-4.197,0.766-7.143-1.775-7.506-4.832c-0.306-2.614,1.028-5.588,2.283-7.345         c3.142-4.383,10.845-8.285,17.122-8.484c12.354-0.396,21.012,10.313,20.632,22.259c-0.174,5.382-2.879,10.309-6.042,14.242         C499.162,414.311,489.553,419.206,474.616,416.352z"/>
						</g>
						<g style="opacity:0.62;">
							<path style="fill-rule:evenodd;clip-rule:evenodd;fill:#FFFFFF;" d="M474.616,416.352c0.804,5.218-0.267,12.225-5.788,12.348         c-3.022,0.064-4.734-2.205-6.014-5.007c-1.612-3.5-2.682-8.463-0.571-11.859c4.094-6.591,15.579-2.367,24.198-4.088         c7.259-1.452,13.699-6.979,14.515-14.679c0.363-3.435-0.411-6.644-2.518-9.788c-1.123-1.669-3.347-4.578-6.879-4.391         c-6.72,0.357-6.402,10.101-12.102,11.142c-4.197,0.766-7.143-1.775-7.506-4.832c-0.306-2.614,1.028-5.588,2.283-7.345         c3.142-4.383,10.845-8.285,17.122-8.484c12.354-0.396,21.012,10.313,20.632,22.259c-0.174,5.382-2.879,10.309-6.042,14.242         C499.162,414.311,489.553,419.206,474.616,416.352z"/>
						</g>
						<path style="fill-rule:evenodd;clip-rule:evenodd;fill:#B1BC00;" d="M426.158,319.648        c15.724-1.328,33.639,1.229,44.547,12.491c3.328,3.436,7.611,10.388,7.59,19.273c-0.029,11.105-4.73,17.572-8.772,22.259        c-11.712,13.6-28.762,19.917-44.284,21.895c-15.646,1.997-36.363,0.651-48.374-11.622c-3.886-3.983-8.696-10.022-8.619-20.269        c0.076-10.75,5.332-18.496,8.986-22.714c6.629-7.668,13.863-11.66,22.347-15.245        C407.821,322.232,416.408,320.465,426.158,319.648z"/>
						<path style="opacity:0.21;fill-rule:evenodd;clip-rule:evenodd;" d="M426.158,319.648        c15.724-1.328,33.639,1.229,44.547,12.491c3.328,3.436,7.611,10.388,7.59,19.273c-0.029,11.105-4.73,17.572-8.772,22.259        c-11.712,13.6-28.762,19.917-44.284,21.895c-15.646,1.997-36.363,0.651-48.374-11.622c-3.886-3.983-8.696-10.022-8.619-20.269        c0.076-10.75,5.332-18.496,8.986-22.714c6.629-7.668,13.863-11.66,22.347-15.245        C407.821,322.232,416.408,320.465,426.158,319.648z"/>
						<g>
							<path style="fill:#EFAD1B;" d="M466.125,355.386c-9.968-10.291-26.338-12.626-40.706-11.421         c-8.906,0.762-16.754,2.379-24.29,5.56c-7.754,3.275-14.364,6.928-20.42,13.921c-2.749,3.177-6.482,8.54-7.756,15.823         c1.27,1.824,2.64,3.365,3.912,4.674c12.012,12.273,32.728,13.619,48.374,11.622c15.522-1.978,32.573-8.294,44.284-21.895         c1.087-1.258,2.218-2.656,3.288-4.215C471.913,363.039,468.715,358.056,466.125,355.386z"/>
							<path style="fill:#4D3D87;" d="M466.125,355.386c-9.968-10.291-26.338-12.626-40.706-11.421         c-8.906,0.762-16.754,2.379-24.29,5.56c-7.754,3.275-14.364,6.928-20.42,13.921c-2.749,3.177-6.482,8.54-7.756,15.823         c1.27,1.824,2.64,3.365,3.912,4.674c12.012,12.273,32.728,13.619,48.374,11.622c15.522-1.978,32.573-8.294,44.284-21.895         c1.087-1.258,2.218-2.656,3.288-4.215C471.913,363.039,468.715,358.056,466.125,355.386z"/>
						</g>
						<path style="fill:#FFFFFF;" d="M441.208,354.488c-7.034-2.496-13.378,0.837-18.255,4.536        c-4.808-10.982-22.756-9.345-24.504,1.689c-1.599,10.102,9.133,14.879,13.621,20.242c1.88,2.243,3.381,10.309,7.611,10.706        c2.896,0.266,5.207-4.191,7.28-5.947c6.669-5.623,20.987-8.869,21.495-21.034        C448.639,360.356,445.048,355.846,441.208,354.488z M437.976,370.981c-2.31,2.078-6.008,3.349-8.954,5.215        c-2.961,1.874-5.504,4-8.23,6.232c-2.1-5.348-6.092-7.441-10.95-12.165c-1.429-1.386-6.432-5.648-4.123-10.111        c2.652-5.111,10.753-0.233,11.987,3.366c1.27,3.694-0.378,6.74,3.259,7.279c3.301,0.491,6.621-7.587,9.617-9.136        c3.364-1.742,11.09-2.06,11.12,3.223C441.706,366.713,438.237,370.748,437.976,370.981z"/>
					</g>
					<g>
						<path style="fill-rule:evenodd;clip-rule:evenodd;fill:#FFFFFF;" d="M392.951,416.569c4.287-0.997-2.932-9.819-4.724-5.876        C387.283,412.747,390.983,415.728,392.951,416.569z"/>
						<path style="fill-rule:evenodd;clip-rule:evenodd;fill:#FFFFFF;" d="M400.269,418.868c-0.816-0.445-2.734-0.912-3.498,0.797        c-1.007,2.23,1.838,6.235,2.669,8.036c1.003,2.191,1.91,6.769,4.619,7.005c3.861,0.335,1.425-6.244,0.493-8.472        c-0.497-1.182-1.1-2.295-1.568-3.277C402.183,421.282,401.845,419.725,400.269,418.868z"/>
					</g>
					<g>
						<path style="fill-rule:evenodd;clip-rule:evenodd;fill:#FFFFFF;" d="M445.848,346.194c3.053-3.174-7.809-6.629-7.164-2.345        C439.021,346.086,443.745,346.563,445.848,346.194z"/>
						<path style="fill-rule:evenodd;clip-rule:evenodd;fill:#FFFFFF;" d="M453.237,344.128c-0.928,0.075-2.787,0.728-2.495,2.578        c0.371,2.419,4.94,4.22,6.621,5.278c2.038,1.289,5.295,4.63,7.697,3.349c3.414-1.826-2.216-6.008-4.21-7.369        c-1.066-0.72-2.176-1.322-3.104-1.889C456.158,345.108,455.025,343.985,453.237,344.128z"/>
					</g>
				</g>
			</g>
		</g>
	</g>
</g>















</svg>
